<svg width="355" height="355" viewBox="0 0 355 355" fill="none" xmlns="http://www.w3.org/2000/svg">
<g clip-path="url(#clip0_20_10)">
<path d="M154.329 27.6885C154.513 28.2427 155.954 29.7943 159.519 33.3223C164.192 37.9955 164.525 38.2911 167.148 39.9166C171.877 42.872 174.518 43.8879 179.394 44.7006C181.888 45.1255 185.453 45.144 186.654 44.7191C187.411 44.442 187.577 44.3127 187.688 43.7955C187.984 42.3178 186.377 38.7898 183.901 35.5758C181.999 33.0822 180.263 31.7153 176.771 29.9236C169.623 26.2847 161.311 24.9917 155.419 26.5618L154.015 26.9312L154.329 27.6885Z" fill="white"/>
<path d="M186.099 19.007C186.044 20.7248 187.134 26.4694 188.371 30.921C190.846 39.8611 193.71 45.0885 198.531 49.5401C201.061 51.8491 202.077 52.5694 203.906 53.2898C204.774 53.6408 204.996 53.6038 205.494 53.1051C206.381 52.2185 207.397 48.8013 207.508 46.4C207.6 43.6108 207.027 39.6395 206.141 37.1274C204.017 31.0503 197.09 23.0153 190.736 19.2841C187.632 17.4369 186.598 16.9567 186.358 17.1968C186.266 17.2891 186.155 18.1019 186.099 19.007Z" fill="white"/>
<path d="M164.469 56.7439C165.281 58.3325 174.092 61.7866 179.726 62.7287C185.36 63.6707 192.877 63.172 195.999 61.6389C197.625 60.8631 199.62 59.2006 199.841 58.4248C200.211 57.2057 197.569 54.0102 195.002 52.5879C193.21 51.6089 190.236 50.6299 187.798 50.2235C180.742 49.0414 174.24 50.3344 167.609 54.2318C165.891 55.2478 164.432 56.1159 164.358 56.1898C164.284 56.2637 164.339 56.5038 164.469 56.7439Z" fill="white"/>
<path d="M213.326 35.4464C212.347 41.228 212.291 46.2337 213.178 52.4401C214.065 58.6834 215.432 62.8949 218.073 67.5681C219.717 70.4312 222.728 73.8484 224.15 74.421C225.092 74.8089 225.184 74.7904 225.997 73.9777C228.103 71.8719 229.451 67.4942 229.433 62.821C229.396 53.9547 225.517 45.5687 217.759 37.6999C215.616 35.5203 214.84 34.8553 214.249 34.7076L213.474 34.4859L213.326 35.4464Z" fill="white"/>
<path d="M183.957 71.17C184.566 72.5554 190.625 76.5452 195.335 78.6694C201.966 81.6433 208.985 82.2713 215.949 80.5165C217.519 80.1286 218.923 79.6853 219.108 79.5376C219.329 79.3529 219.181 78.6509 218.683 77.4134C217.63 74.8458 214.915 71.8719 212.051 70.1541C204.608 65.7025 193.95 65.3146 186.062 69.249C184.234 70.1541 183.716 70.6344 183.957 71.17Z" fill="white"/>
<path d="M209.04 62.1931C209.52 62.7842 211.995 65.7766 214.545 68.8059C221.933 77.6721 223.54 79.7963 227.456 86.0027C237.781 102.387 244.967 119.805 247.83 135.414C249.88 146.663 251.469 161.477 251.266 167.665C251.192 170.066 250.915 174.407 250.471 180.059C249.696 190.033 246.98 202.612 243.175 213.806C231.28 248.902 204.921 279.915 172.744 296.687C163.878 301.305 153.312 305.258 138.202 309.58C135.616 310.319 133.381 311.039 133.252 311.169C132.957 311.464 133.104 313.607 133.474 314.309C133.695 314.752 134.028 314.863 135.136 314.826C137.944 314.715 145.923 312.462 154.254 309.414C172.023 302.875 184.676 295.727 199.066 284.034C203.277 280.599 214.969 269.017 218.276 265.009C227.955 253.224 234.992 242.197 240.571 230.079C250.36 208.874 255.089 182.756 253.501 158.965C253.187 154.107 252.023 145.665 250.416 136.374C249.511 131.073 249.178 129.854 246.796 123.075C245.373 118.956 243.785 114.559 243.286 113.285C236.876 96.8269 225.276 78.688 212.679 65.3887C208.615 61.1033 207.193 59.8657 209.04 62.1931Z" fill="white"/>
<path d="M200.137 89.1613C200.285 89.7893 205.217 94.8689 207.341 96.5498C209.687 98.4524 213.99 100.909 217.371 102.294C221.767 104.068 225.35 104.511 230.929 103.883L233.736 103.587L233.755 102.719C233.792 101.389 232.48 97.7505 231.261 95.8294C226.828 88.8842 214.101 85.2823 202.667 87.739C200.691 88.1638 200.008 88.5517 200.137 89.1613Z" fill="white"/>
<path d="M236.544 59.9579C235.454 63.4121 234.032 70.4127 233.626 74.2178C233.238 77.7459 233.385 83.1026 233.921 86.0764C234.863 91.1191 237.209 96.2357 239.536 98.3414C240.645 99.3389 240.682 99.3389 241.421 98.8586C241.845 98.5816 243.046 97.3809 244.099 96.1433C245.743 94.2777 246.112 93.6866 246.648 92.1905C248.144 87.9236 248.717 82.2159 248.107 77.7643C247.461 73.3127 244.782 66.6076 241.716 61.842C240.035 59.2375 238.114 56.8732 237.726 56.9656C237.578 57.0025 237.043 58.3509 236.544 59.9579Z" fill="white"/>
<path d="M212.569 109.831C212.846 112.287 218.369 119.214 222.876 122.797C225.684 125.014 229.987 127.545 232.352 128.357C236.582 129.854 242.825 130.666 243.638 129.854C244.173 129.318 244.118 127.415 243.471 124.885C242.806 122.262 241.901 120.396 240.239 118.29C237.265 114.467 230.985 110.551 226.127 109.461C223.153 108.778 213.16 108.242 212.661 108.741C212.55 108.852 212.495 109.35 212.569 109.831Z" fill="white"/>
<path d="M254.517 89.0133C248.976 100.022 247.221 106.838 247.72 115.686C247.941 119.971 248.255 122.059 249.031 124.164C249.788 126.252 251.192 128.173 251.913 128.117C252.541 128.043 256.253 124.589 258.581 121.929C260.465 119.787 260.539 119.639 261.573 116.646C262.164 114.947 262.792 112.398 262.995 110.939C263.513 107.208 263.309 102.017 262.515 97.9719C261.481 92.8738 259.153 86.6305 257.731 85.2082C257.362 84.8388 257.214 84.8757 256.641 85.4853C256.253 85.8732 255.293 87.4617 254.517 89.0133Z" fill="white"/>
<path d="M220.53 132.791C220.77 133.991 222.321 137.612 223.651 140.161C225.831 144.298 227.53 146.663 231.058 150.412C234.679 154.254 237.191 156.249 240.405 157.838C243.822 159.519 247.609 160.239 248.458 159.389C248.662 159.186 248.809 158.004 248.809 156.711C248.809 146.182 241.957 137.409 230.892 133.733C226.958 132.421 222.081 131.535 220.881 131.886C220.493 132.015 220.4 132.218 220.53 132.791Z" fill="white"/>
<path d="M223.966 158.466C224.021 161.107 226.053 168.163 228.251 173.317C230.338 178.175 232.961 181.758 237.708 186.284L240.701 189.128L243.231 190.107C244.617 190.643 245.947 191.123 246.187 191.179C246.981 191.345 247.886 186.893 247.905 182.811C247.923 179.505 247.849 179.061 246.722 175.829C245.245 171.654 244.635 170.749 240.313 166.427C236.36 162.474 234.864 161.347 231.52 159.703C228.842 158.392 224.631 156.914 224.206 157.154C224.058 157.228 223.947 157.819 223.966 158.466Z" fill="white"/>
<path d="M267.724 120.175C263.236 125.328 258.803 133.123 256.623 139.699C255.441 143.245 254.924 145.831 254.831 148.805C254.739 152.703 255.441 158.65 256.087 159.297C256.457 159.666 259.782 158.484 262.09 157.173C264.436 155.861 267.133 153.164 268.685 150.615C272.361 144.649 274.577 135.968 274.115 129.447C273.838 125.808 272.324 116.794 271.899 116.37C271.806 116.277 271.437 116.462 271.123 116.776C270.79 117.108 270.31 117.515 270.07 117.681C269.83 117.847 268.777 118.974 267.724 120.175Z" fill="white"/>
<path d="M222.081 186.099C221.379 194.189 224.519 206.27 228.86 212.236C230.19 214.046 234.974 218.83 236.138 219.477C237.394 220.179 238.262 219.938 239.075 218.645C242.787 212.79 242.104 202.982 237.486 195.889C235.177 192.398 229.396 186.801 225.923 184.769C224.261 183.771 222.765 183.236 222.487 183.513C222.377 183.624 222.173 184.787 222.081 186.099Z" fill="white"/>
<path d="M214.064 211.405C212.956 216.281 212.79 224.686 213.713 230.153C214.046 232.111 215.302 236.138 216.299 238.465C217.666 241.642 222.524 247.756 223.651 247.775C224.833 247.775 228.693 241.144 229.34 237.985C230.393 233.016 229.137 226.182 226.107 220.234C224.205 216.447 222.801 214.526 219.975 211.7C217.26 208.985 215.708 207.95 215.043 208.394C214.858 208.542 214.415 209.872 214.064 211.405Z" fill="white"/>
<path d="M264.898 164.783C258.47 171.987 254.812 180.816 254.369 190.089L254.24 192.656L257.454 192.028C263.032 190.92 265.286 189.627 269.848 185.065C273.247 181.629 274.152 180.244 276.017 175.644C278.437 169.641 279.656 163.508 279.712 156.951C279.749 152.444 279.509 151.908 277.994 152.832C275.519 154.31 268.5 160.701 264.898 164.783Z" fill="white"/>
<path d="M201.043 233.921C197.903 241.014 196.332 251.229 197.256 258.359C197.773 262.127 200.525 268.869 202.354 270.846C203.056 271.584 203.278 271.658 203.869 271.474C204.829 271.178 207.692 268.278 209.115 266.154C211.848 262.127 212.587 259.652 212.68 254.24C212.79 247.295 210.943 241.532 206.787 235.787C205.882 234.549 204.811 233.072 204.441 232.481C203.296 230.781 203.075 230.633 202.502 231.206C202.225 231.52 201.578 232.721 201.043 233.921Z" fill="white"/>
<path d="M182.996 252.965C180.65 256.124 177.879 261.665 176.272 266.449C173.612 274.392 173.39 281.818 175.589 288.449C176.05 289.834 176.549 291.072 176.697 291.22C176.826 291.349 177.417 291.312 177.99 291.109C181.462 289.963 186.099 285.66 188.297 281.577C190.994 276.553 191.973 269.109 190.717 263.198C190.218 260.927 187.355 252.67 186.542 251.118C185.785 249.696 185.194 250.028 182.996 252.965Z" fill="white"/>
<path d="M252.042 209.373C249.64 212.328 247.276 216.983 246.26 220.696C245.817 222.358 246.02 223.337 246.87 223.854C249.585 225.461 257.454 224.131 261.665 221.324C265.47 218.812 270.458 213.898 272.785 210.426C274.041 208.505 275.851 205.217 276.609 203.388C278.068 199.934 279.675 194.337 279.878 191.954C279.97 190.938 279.897 190.754 279.435 190.735C277.421 190.532 267.798 195.612 262.164 199.805C259.338 201.929 254.037 206.935 252.042 209.373Z" fill="white"/>
<path d="M234.439 245.484C232.703 247.738 230.782 251.691 230.985 252.596C231.206 253.482 237.542 254.905 240.756 254.794C250.527 254.406 259.357 248.975 266.431 238.945C269.165 235.103 271.733 230.024 271.622 228.768C271.548 228.066 269.848 228.103 266.062 228.86C257.62 230.578 250.047 233.533 243.527 237.689C239.241 240.423 236.563 242.732 234.439 245.484Z" fill="white"/>
<path d="M183.07 301.139C185.305 303.817 189.128 306.237 193.303 307.641C195.464 308.361 199.638 308.841 202.538 308.712C210.758 308.361 222.672 303.244 230.264 296.835C231.261 295.985 232.074 295.246 232.019 295.191C231.852 295.025 226.182 293.491 223.411 292.863C214.73 290.869 205.882 290.333 199.472 291.386C194.042 292.272 188.574 294.452 184.621 297.297C181.481 299.587 181.573 299.31 183.07 301.139Z" fill="white"/>
<path d="M209.964 277.68C209.834 278.844 210.555 279.823 212.346 280.875C216.17 283.147 222.838 284.053 228.158 283.018C232.887 282.095 238.391 279.619 243.194 276.258C245.558 274.595 246.703 273.598 250.36 269.94C254.092 266.246 254.775 265.489 255.108 264.602C255.311 264.067 255.403 263.531 255.292 263.42C254.683 262.81 243.544 262.792 237.855 263.383C227.345 264.473 218.516 268.389 212.106 274.798C210.333 276.572 210.056 276.96 209.964 277.68Z" fill="white"/>
</g>
<defs>
<clipPath id="clip0_20_10">
<rect width="256" height="245.029" fill="white" transform="translate(0 181.019) rotate(-45)"/>
</clipPath>
</defs>
</svg>
