<svg width="802" height="816" viewBox="0 0 802 816" fill="none" xmlns="http://www.w3.org/2000/svg">
<path d="M0.267578 18.7069C0.267578 8.7658 8.32645 0.706909 18.2676 0.706909H527.687C679.038 0.706909 801.732 123.401 801.732 274.752V274.752C801.732 426.103 679.038 548.797 527.687 548.797H31.2676C14.1467 548.797 0.267578 534.918 0.267578 517.797V18.7069Z" fill="#99582A"/>
<path fill-rule="evenodd" clip-rule="evenodd" d="M11.3775 24.7244C11.4171 24.7383 11.4377 24.7454 11.4377 24.7454C11.3935 24.7246 11.3495 24.7039 11.3058 24.683L7.98821 22.7677C0.0916228 17.2178 2.3952 9.974 2.3952 9.974C2.3952 9.974 -0.47569 16.2218 0.267366 18.7233L0.267377 517.866C0.267378 530.017 8.79747 544.791 19.3199 550.866L454.827 802.306C508.396 833.234 551.822 808.162 551.822 746.306V392.738C551.822 361.809 530.108 324.201 503.323 308.737L11.3775 24.7244Z" fill="#BB9457"/>
<path d="M0.267578 381.411L445.405 638.411C449.231 640.62 452.333 645.993 452.333 650.411L452.333 706.411C452.333 710.829 449.231 712.62 445.405 710.411L0.267577 453.411L0.267578 381.411Z" fill="#FFE6A7"/>
<rect width="96" height="96" rx="8" transform="matrix(0.866025 0.5 -2.20305e-08 1 383.938 323.944)" fill="#FFE6A7"/>
</svg>
