<svg width="931" height="930" viewBox="0 0 931 930" fill="none" xmlns="http://www.w3.org/2000/svg">
<path fill-rule="evenodd" clip-rule="evenodd" d="M38.1853 0.505127H622.076H627.445V0.550848C795.575 3.41625 930.986 140.602 930.986 309.415C930.986 480.021 792.682 618.325 622.076 618.325L622.077 901.749C622.077 926.602 604.629 936.675 583.105 924.249L39.2993 610.283C17.7761 597.857 0.328138 567.636 0.328137 542.783L0.328125 44.8499C0.328125 44.8431 0.328127 44.8364 0.328129 44.8296C0.24662 43.7331 0.205078 42.6243 0.205078 41.5051C0.205078 19.1244 16.8168 0.93204 37.4562 0.512531V0.505127H38.1853ZM143.496 82.5051L583.105 336.301C604.628 348.727 622.077 378.949 622.077 403.802L622.076 536.325C747.395 536.325 848.986 434.734 848.986 309.415C848.986 184.096 747.395 82.5051 622.076 82.5051H143.496ZM71.3422 546.783L71.3422 122.849L551.062 399.803V823.749L71.3422 546.783ZM129.695 438.722C119.173 432.647 110.643 437.572 110.643 449.722V487.722C110.643 499.872 119.173 514.647 129.695 520.722L492.586 730.237C503.109 736.312 511.639 731.387 511.639 719.237V681.237C511.639 669.086 503.109 654.312 492.586 648.237L129.695 438.722ZM416.493 408.722C416.493 396.572 425.023 391.647 435.545 397.722L468.454 416.722C478.977 422.797 487.507 437.572 487.507 449.722V487.722C487.507 499.872 478.977 504.797 468.454 498.722L435.545 479.722C425.023 473.647 416.493 458.872 416.493 446.722V408.722Z" fill="black"/>
</svg>
